PathFileType	4	(X/Y/Z)	Gait_latera_markers.trc
DataRate	CameraRate	NumFrames	NumMarkers	Units	OrigDataRate	OrigDataStartFrame	OrigNumFrames
100	100	9	38	m	100	25	96
Frame#	Time	RASI			RPSI			LPSI			LASI			RTROCH			RTHI			RTHI2			RTHI3			RTHI4			RKNE			RKNEM			RTIB			RTIB2			RTIB3			RTIB4			RANK			RANKM			RHEE			RTOE			RTOEL			RTOEM			LTROCH			LTHI			LTHI2			LTHI3			LTHI4			LKNE			LKNEM			LTIB			LTIB2			LTIB3			LTIB4			LANK			LANKM			LHEE			LTOE			LTOEL			LTOEM
		X1	Y1	Z1	X2	Y2	Z2	X3	Y3	Z3	X4	Y4	Z4	X5	Y5	Z5	X6	Y6	Z6	X7	Y7	Z7	X8	Y8	Z8	X9	Y9	Z9	X10	Y10	Z10	X11	Y11	Z11	X12	Y12	Z12	X13	Y13	Z13	X14	Y14	Z14	X15	Y15	Z15	X16	Y16	Z16	X17	Y17	Z17	X18	Y18	Z18	X19	Y19	Z19	X20	Y20	Z20	X21	Y21	Z21	X22	Y22	Z22	X23	Y23	Z23	X24	Y24	Z24	X25	Y25	Z25	X26	Y26	Z26	X27	Y27	Z27	X28	Y28	Z28	X29	Y29	Z29	X30	Y30	Z30	X31	Y31	Z31	X32	Y32	Z32	X33	Y33	Z33	X34	Y34	Z34	X35	Y35	Z35	X36	Y36	Z36	X37	Y37	Z37	X38	Y38	Z38

25	0.240000	-0.334976	0.941470	-0.650977	-0.248894	0.977505	-0.828412	-0.153336	0.966810	-0.814778	-0.112744	0.952016	-0.622739	-0.383985	0.869761	-0.741249	-0.385185	0.760664	-0.778294	-0.389013	0.755965	-0.715516	-0.383271	0.672757	-0.715140	-0.380613	0.672501	-0.777200	-0.361313	0.521701	-0.797617	-0.247567	0.519200	-0.765261	-0.367812	0.422943	-0.896514	-0.354324	0.385863	-0.848701	-0.345834	0.317498	-0.903971	-0.360843	0.360341	-0.949356	-0.296365	0.194161	-1.085367	-0.233821	0.173456	-1.038351	-0.237733	0.175554	-1.150228	-0.320264	0.049580	-0.979856	-0.360808	0.057772	-1.048103	-0.260670	0.037154	-0.987152	-0.047391	0.878755	-0.686093	-0.042642	0.680246	-0.605983	-0.061324	0.699634	-0.549289	-0.075139	0.620342	-0.528703	-0.057279	0.595975	-0.585786	-0.085460	0.526474	-0.537624	-0.189909	0.543817	-0.545502	-0.074726	0.300045	-0.530515	-0.091784	0.318199	-0.470685	-0.104548	0.231858	-0.460025	-0.088280	0.219139	-0.519040	-0.118150	0.090536	-0.491416	-0.185323	0.124053	-0.452187	-0.176692	0.054153	-0.530668	-0.104707	0.076955	-0.309543	-0.064288	0.049383	-0.362926	-0.158747	0.066291	-0.315935
26	0.250000	-0.333342	0.943007	-0.637727	-0.249427	0.978962	-0.815014	-0.153729	0.969117	-0.802663	-0.110966	0.955266	-0.610787	-0.382513	0.870377	-0.726521	-0.384501	0.760182	-0.761563	-0.387978	0.756733	-0.698591	-0.383387	0.673440	-0.696393	-0.381152	0.672224	-0.758399	-0.364725	0.520900	-0.775367	-0.249676	0.518018	-0.742542	-0.371355	0.424176	-0.874902	-0.357538	0.385199	-0.829320	-0.348047	0.319632	-0.886147	-0.363723	0.363380	-0.929757	-0.297395	0.203314	-1.071251	-0.235381	0.180563	-1.024489	-0.237887	0.189882	-1.135391	-0.320880	0.050435	-0.976462	-0.360240	0.063243	-1.044538	-0.261691	0.039507	-0.983149	-0.044956	0.882673	-0.675156	-0.041190	0.683871	-0.592172	-0.060853	0.703765	-0.535699	-0.075314	0.624722	-0.514635	-0.056488	0.599981	-0.571352	-0.083761	0.527777	-0.526925	-0.187109	0.545175	-0.532745	-0.072598	0.300928	-0.524128	-0.090497	0.317999	-0.464346	-0.103356	0.231645	-0.455249	-0.086464	0.219648	-0.514122	-0.118015	0.089752	-0.489878	-0.184561	0.123631	-0.450042	-0.176452	0.054663	-0.530284	-0.105160	0.073813	-0.307780	-0.064657	0.047296	-0.361651	-0.159334	0.063536	-0.315000
27	0.260000	-0.331411	0.944687	-0.624508	-0.251411	0.982900	-0.804718	-0.154431	0.971382	-0.790845	-0.108962	0.958287	-0.599200	-0.381073	0.871164	-0.711882	-0.384012	0.759673	-0.744451	-0.387273	0.757832	-0.681461	-0.384080	0.674407	-0.677349	-0.382068	0.671580	-0.739426	-0.368250	0.520256	-0.752456	-0.253443	0.516422	-0.718340	-0.374666	0.425514	-0.852400	-0.360515	0.385838	-0.807313	-0.350171	0.321314	-0.867272	-0.366781	0.367269	-0.909751	-0.298588	0.212836	-1.055406	-0.237193	0.187873	-1.008746	-0.238170	0.204721	-1.118240	-0.322039	0.052019	-0.972302	-0.359634	0.069849	-1.039903	-0.262122	0.043403	-0.978677	-0.042310	0.887168	-0.663506	-0.039383	0.686945	-0.579624	-0.060579	0.706977	-0.523895	-0.075192	0.627991	-0.502833	-0.054638	0.602888	-0.558701	-0.081517	0.528661	-0.518616	-0.184441	0.546196	-0.520453	-0.070913	0.301603	-0.517745	-0.089400	0.317695	-0.458199	-0.103119	0.231198	-0.450515	-0.084976	0.220428	-0.509362	-0.117652	0.089765	-0.488217	-0.184399	0.123313	-0.449365	-0.176245	0.055059	-0.529945	-0.105946	0.071328	-0.306073	-0.065144	0.046303	-0.360372	-0.160011	0.060792	-0.313868
28	0.270000	-0.329348	0.946778	-0.611599	-0.251892	0.985015	-0.792300	-0.154833	0.973512	-0.779012	-0.106554	0.960939	-0.587604	-0.379646	0.871909	-0.697395	-0.384103	0.759189	-0.727378	-0.386585	0.758877	-0.663721	-0.384639	0.675524	-0.657386	-0.383335	0.671167	-0.719784	-0.370910	0.519530	-0.728855	-0.257077	0.514984	-0.693606	-0.377903	0.426849	-0.828634	-0.363405	0.385993	-0.785098	-0.352911	0.323550	-0.846503	-0.368646	0.370343	-0.887581	-0.299903	0.222234	-1.037703	-0.239594	0.194959	-0.991212	-0.238049	0.221370	-1.099588	-0.323410	0.054443	-0.966934	-0.359350	0.077961	-1.034248	-0.262901	0.048256	-0.972872	-0.043911	0.887522	-0.654825	-0.037875	0.689369	-0.569674	-0.059703	0.708586	-0.514056	-0.073511	0.629413	-0.493719	-0.052253	0.604970	-0.549654	-0.079231	0.529151	-0.511786	-0.182991	0.547088	-0.510818	-0.069967	0.301945	-0.511709	-0.090157	0.317140	-0.452193	-0.103531	0.230471	-0.446350	-0.084237	0.220530	-0.504875	-0.117665	0.090144	-0.486978	-0.184582	0.122681	-0.447465	-0.176092	0.055177	-0.529609	-0.106016	0.069574	-0.304981	-0.065211	0.045703	-0.359716	-0.160216	0.058706	-0.313243
29	0.280000	-0.327109	0.948494	-0.599076	-0.251937	0.987015	-0.780174	-0.154815	0.975404	-0.767224	-0.104312	0.963388	-0.576219	-0.378362	0.872878	-0.683080	-0.384246	0.758936	-0.709414	-0.386273	0.760181	-0.646298	-0.385541	0.676945	-0.637689	-0.384691	0.671183	-0.699846	-0.374055	0.519462	-0.705369	-0.259028	0.513808	-0.668570	-0.380403	0.428437	-0.804574	-0.364977	0.385795	-0.762397	-0.355094	0.325799	-0.825160	-0.371591	0.374038	-0.864897	-0.301680	0.231535	-1.018703	-0.241844	0.202415	-0.972009	-0.238217	0.236748	-1.077970	-0.325176	0.058108	-0.959920	-0.359345	0.087770	-1.026401	-0.264522	0.053429	-0.965570	-0.042976	0.889200	-0.645021	-0.036758	0.690674	-0.561603	-0.057312	0.708242	-0.505000	-0.070562	0.628418	-0.486907	-0.050393	0.605911	-0.543825	-0.077854	0.528563	-0.505272	-0.182883	0.547503	-0.503935	-0.069897	0.302235	-0.506543	-0.090852	0.316505	-0.447051	-0.104388	0.229700	-0.442545	-0.084391	0.220612	-0.501045	-0.118015	0.090307	-0.485677	-0.185430	0.122117	-0.446884	-0.176280	0.055317	-0.529481	-0.106310	0.068050	-0.303979	-0.065378	0.045423	-0.359243	-0.160600	0.056909	-0.312607
30	0.290000	-0.325129	0.950440	-0.586648	-0.251440	0.988861	-0.768270	-0.154138	0.976986	-0.755230	-0.102113	0.965325	-0.564995	-0.377294	0.873712	-0.668924	-0.384876	0.758712	-0.692382	-0.386169	0.761424	-0.628802	-0.385704	0.678727	-0.616475	-0.385583	0.671044	-0.679996	-0.376198	0.519623	-0.681531	-0.261389	0.513233	-0.642644	-0.383672	0.430743	-0.779583	-0.368213	0.386997	-0.738186	-0.357226	0.327794	-0.803379	-0.374312	0.377366	-0.841504	-0.302591	0.240311	-0.997954	-0.243717	0.208828	-0.952495	-0.238466	0.251277	-1.054442	-0.327181	0.063444	-0.950510	-0.359801	0.098392	-1.015504	-0.266082	0.059382	-0.957004	-0.042085	0.890499	-0.634988	-0.036383	0.690882	-0.554627	-0.054475	0.706471	-0.496629	-0.067477	0.626121	-0.480844	-0.050562	0.605961	-0.540366	-0.077327	0.528663	-0.498648	-0.183330	0.547852	-0.498793	-0.070326	0.302039	-0.502106	-0.091333	0.315898	-0.442818	-0.105019	0.229206	-0.439634	-0.084919	0.220591	-0.497997	-0.118341	0.090540	-0.484494	-0.186728	0.121015	-0.446343	-0.176844	0.054774	-0.529269	-0.106763	0.066968	-0.303266	-0.065779	0.045242	-0.358865	-0.161261	0.056097	-0.311902
31	0.300000	-0.323374	0.952411	-0.574552	-0.250538	0.990392	-0.756652	-0.154304	0.975918	-0.740126	-0.100158	0.967085	-0.553893	-0.376439	0.874885	-0.655193	-0.385416	0.758824	-0.675696	-0.386284	0.762997	-0.611847	-0.386785	0.680170	-0.598780	-0.386422	0.671266	-0.661016	-0.378307	0.520221	-0.658233	-0.263141	0.513861	-0.617189	-0.386191	0.432665	-0.754735	-0.366992	0.385904	-0.715505	-0.358522	0.330456	-0.780768	-0.376064	0.381137	-0.818123	-0.303143	0.248573	-0.977287	-0.244603	0.215332	-0.932342	-0.238048	0.263260	-1.030317	-0.329752	0.070286	-0.936975	-0.360959	0.108705	-1.001393	-0.269170	0.064749	-0.945927	-0.041021	0.892004	-0.624621	-0.037123	0.690173	-0.548760	-0.051920	0.704072	-0.488786	-0.065305	0.623536	-0.474708	-0.051670	0.604587	-0.535721	-0.078202	0.529484	-0.492429	-0.184013	0.548016	-0.492272	-0.070854	0.302528	-0.499213	-0.091631	0.315471	-0.439539	-0.105221	0.228576	-0.437431	-0.085546	0.220854	-0.496014	-0.118959	0.090722	-0.483734	-0.187410	0.120860	-0.445265	-0.176785	0.055271	-0.529061	-0.107158	0.065670	-0.303008	-0.065814	0.045090	-0.358785	-0.161523	0.055843	-0.311497
32	0.310000	-0.321840	0.954182	-0.562720	-0.249425	0.991628	-0.745202	-0.153434	0.982022	-0.735584	-0.098372	0.968491	-0.542943	-0.375626	0.876507	-0.641729	-0.385317	0.760044	-0.659801	-0.386330	0.765064	-0.595210	-0.387440	0.682258	-0.580149	-0.386820	0.672171	-0.642021	-0.380172	0.521348	-0.634853	-0.267167	0.515312	-0.590728	-0.387932	0.435404	-0.730360	-0.368768	0.387953	-0.691667	-0.359922	0.333945	-0.757494	-0.377618	0.385077	-0.794504	-0.302916	0.256489	-0.956063	-0.244889	0.221097	-0.911294	-0.236358	0.271772	-1.008059	-0.333374	0.076537	-0.921682	-0.362724	0.117967	-0.985233	-0.272684	0.070659	-0.930274	-0.039887	0.893534	-0.613800	-0.037059	0.689215	-0.542360	-0.049277	0.702586	-0.481121	-0.065656	0.622396	-0.468477	-0.053055	0.603548	-0.530133	-0.078308	0.529635	-0.485827	-0.183176	0.551188	-0.484486	-0.071607	0.302947	-0.497119	-0.091634	0.315101	-0.436806	-0.105421	0.227879	-0.435679	-0.086398	0.221169	-0.494792	-0.119452	0.090933	-0.483223	-0.188008	0.120608	-0.444811	-0.176817	0.055220	-0.528924	-0.107156	0.065109	-0.302844	-0.065863	0.044995	-0.358734	-0.161658	0.055501	-0.311336
33	0.320000	-0.320507	0.956286	-0.550915	-0.248220	0.992752	-0.733868	-0.152471	0.983141	-0.724466	-0.096952	0.970066	-0.532077	-0.374939	0.878327	-0.628538	-0.385184	0.761122	-0.643846	-0.386335	0.767483	-0.579344	-0.387917	0.685070	-0.562157	-0.387148	0.673622	-0.623858	-0.382055	0.523150	-0.611639	-0.268556	0.518122	-0.567668	-0.389492	0.438894	-0.706006	-0.370477	0.390677	-0.668063	-0.360095	0.337972	-0.734069	-0.378790	0.389232	-0.770670	-0.301964	0.264143	-0.934872	-0.245192	0.227783	-0.889529	-0.234663	0.277741	-0.985659	-0.337672	0.085353	-0.901731	-0.364941	0.127699	-0.965095	-0.276949	0.077828	-0.910036	-0.039006	0.895367	-0.602808	-0.036897	0.690069	-0.535903	-0.049442	0.703520	-0.474484	-0.064938	0.622896	-0.461910	-0.052976	0.603899	-0.523341	-0.078256	0.529432	-0.480098	-0.183060	0.551646	-0.478374	-0.072011	0.303187	-0.495100	-0.091000	0.314644	-0.434467	-0.104930	0.227770	-0.434379	-0.086827	0.221436	-0.493614	-0.119779	0.091197	-0.482727	-0.188647	0.120391	-0.444499	-0.176883	0.055326	-0.528877	-0.107339	0.064532	-0.302831	-0.065931	0.044949	-0.358637	-0.162001	0.055246	-0.311103
